<svg width="22" height="13" viewBox="0 0 22 13" fill="none" xmlns="http://www.w3.org/2000/svg">
<path d="M21.8602 6.13021C21.6636 5.89802 16.9808 0.444824 10.9999 0.444824C5.01902 0.444824 0.33593 5.89802 0.139606 6.12999C-0.0465352 6.35027 -0.0465352 6.64904 0.139606 6.86932C0.33593 7.10152 5.01902 12.5547 10.9999 12.5547C16.9808 12.5547 21.6636 7.10148 21.8602 6.86951C22.0466 6.64927 22.0466 6.35027 21.8602 6.13021ZM10.9999 11.302C6.59434 11.302 2.77867 7.68258 1.64914 6.49934C2.7772 5.31507 6.58489 1.69757 10.9999 1.69757C15.4052 1.69757 19.2206 5.31633 20.3506 6.5002C19.2226 7.68443 15.4149 11.302 10.9999 11.302Z" fill="#8E8E8E"/>
</svg>
